
Click To Enlarge 


-: Cover :-

    	http://desibbrg.org/images/88764907702273203166.jpg

-: Screens :-

    	http://desibbrg.org/images/79269437026753395878.jpg
    	http://desibbrg.org/images/51554369113449371841.jpg
    	http://desibbrg.org/images/14718529042312487338.jpg
    	http://desibbrg.org/images/99956467290069738379.jpg
    	http://desibbrg.org/images/99397419774855441856.jpg
    	http://desibbrg.org/images/43474048884146295718.jpg
    	http://desibbrg.org/images/78349968394630812539.jpg
    	http://desibbrg.org/images/89110047540237167313.jpg
    	http://desibbrg.org/images/01985078870716243769.jpg
    	http://desibbrg.org/images/41491910719665930765.jpg
    	http://desibbrg.org/images/94497177446412711254.jpg
    	http://desibbrg.org/images/73938865225195208615.jpg
    	http://desibbrg.org/images/20273017088671800480.jpg
    	http://desibbrg.org/images/41364031562039073035.jpg
    	http://desibbrg.org/images/64827208665984056813.jpg
    	http://desibbrg.org/images/97836641998892711032.jpg
    	http://desibbrg.org/images/24955605971743232077.jpg
    	http://desibbrg.org/images/67096612961473439245.jpg
    	http://desibbrg.org/images/59904986484248616582.jpg

    	http://desibbrg.org/images/20759936018381970682.jpg




-: Info :-

 


Format                           : AVI
Format/Info                      : Audio Video Interleave
File size                        : 1.36 GiB
Duration                         : 2h 16mn
Overall bit rate mode            : Variable
Overall bit rate                 : 1 430 Kbps
Writing application              : VirtualDubMod 1.5.4.1 (build 2178/release)
Writing library                  : VirtualDubMod build 2178/release

Video
ID                               : 0
Format                           : MPEG-4 Visual
Format profile                   : Advanced Simple@L5
Format settings, BVOP            : 1
Format settings, QPel            : No
Format settings, GMC             : No warppoints
Format settings, Matrix          : Custom
Codec ID                         : XVID
Codec ID/Hint                    : XviD
Duration                         : 2h 16mn
Bit rate                         : 1 345 Kbps
Width                            : 640 pixels
Height                           : 480 pixels
Display aspect ratio             : 4:3
Frame rate                       : 29.970 fps
Color space                      : YUV
Chroma subsampling               : 4:2:0
Bit depth                        : 8 bits
Scan type                        : Progressive
Compression mode                 : Lossy
Bits/(Pixel*Frame)               : 0.146
Stream size                      : 1.28 GiB (94%)
Writing library                  : XviD 1.2.1 (UTC 2008-12-04)

Audio
ID                               : 1
Format                           : MPEG Audio
Format version                   : Version 1
Format profile                   : Layer 3
Mode                             : Joint stereo
Mode extension                   : MS Stereo
Codec ID                         : 55
Codec ID/Hint                    : MP3
Duration                         : 2h 16mn
Bit rate mode                    : Variable
Bit rate                         : 74.2 Kbps
Channel(s)                       : 2 channels
Sampling rate                    : 32.0 KHz
Compression mode                 : Lossy
Stream size                      : 72.3 MiB (5%)
Alignment                        : Aligned on interleaves
Ripper - TDBB

 
http://www.imdb.com/title/tt0315462/


Directed by
Ambrish Sangal	 	
 
Writing credits
(in alphabetical order)
Aruna Sangal	 	story
V.K. Sharma	 	screenplay & dialogue

Cast (in credits order)

	Rajesh Khanna	... 	Deepak Srivastav / Vikas 'Vicky'

	Hema Malini	... 	Seema
	Poonam Dhillon	... 	Poonam Bhargav
	Poornima Jayaram	... 	Vikas's Sister (as Poornima Jairam)
	Mazhar Khan	... 	Ajit Saxena
	Krishan Dhawan		
	Pinchoo Kapoor	... 	Bhargav (Poonam's dad)
	Ranjeeta Kaur		(as Ranjita)
	Om Shivpuri	... 	Dayal - Seema's Dad
	Shashi Kiran		

rest of cast listed alphabetically:
	Shashi Puri		


Produced by
Shyam Sunder Shivdasani	.... 	producer
 
Original Music by
Khayyam	 	
 
Cinematography by
Pramod Mittal	 	(as Pramod Mital)
 
Film Editing by
Kamlakar Karkhanis	 	(as Kamlakar)
 
Music Department
Asha Bhosle	.... 	playback singer (as Asha Bhonsle)
Kishore Kumar	.... 	playback singer
Naqsh Lyallpuri	.... 	lyrics (as Naqsh Layallpuri)
Lata Mangeshkar	.... 	playback singer
Bhupendra Singh	.... 	playback singer (as Bhupinder)


Prosecuting Attorney Seema proceeds with the criminal prosecution of Deepak Srivastav, who is accused of Murder. She submits to the Judge to not be fooled by the innocent looks and the silence of the accused, as she will prove that the accused was in fact a cold-blooded murderer who killed a Courtesan by the name of Munnibai. As the trial proceeds, so that Deepak's life, complicated by the fact that Seema was in love with the accused several years ago

